<svg width="1160" height="752" xmlns="http://www.w3.org/2000/svg" xmlns:xlink="http://www.w3.org/1999/xlink" xml:space="preserve" overflow="hidden"><defs><filter id="fx0" x="-10%" y="-10%" width="120%" height="120%" filterUnits="userSpaceOnUse" primitiveUnits="userSpaceOnUse"><feComponentTransfer color-interpolation-filters="sRGB"><feFuncR type="discrete" tableValues="0.000000 0.000000"/><feFuncG type="discrete" tableValues="0.000000 0.000000"/><feFuncB type="discrete" tableValues="0.000000 0.000000"/><feFuncA type="linear" slope="0.400000" intercept="0.000000"/></feComponentTransfer><feGaussianBlur stdDeviation="3.579094 3.579094"/></filter><filter id="fx1" x="-10%" y="-10%" width="120%" height="120%" filterUnits="userSpaceOnUse" primitiveUnits="userSpaceOnUse"><feComponentTransfer color-interpolation-filters="sRGB"><feFuncR type="discrete" tableValues="0.000000 0.000000"/><feFuncG type="discrete" tableValues="0.000000 0.000000"/><feFuncB type="discrete" tableValues="0.000000 0.000000"/><feFuncA type="linear" slope="0.400000" intercept="0.000000"/></feComponentTransfer><feGaussianBlur stdDeviation="3.579094 3.579094"/></filter><clipPath id="clip2"><rect x="1067" y="595" width="1160" height="752"/></clipPath><clipPath id="clip3"><rect x="-10.7373" y="-10.7373" width="1167.47" height="565.475"/></clipPath><clipPath id="clip4"><rect x="0" y="0" width="1146" height="544"/></clipPath><clipPath id="clip5"><rect x="-10.7373" y="-10.7373" width="1167.47" height="564.475"/></clipPath><clipPath id="clip6"><rect x="0" y="0" width="1146" height="543"/></clipPath></defs><g clip-path="url(#clip2)" transform="translate(-1067 -595)"><g clip-path="url(#clip3)" filter="url(#fx0)" transform="translate(1069 599)"><g clip-path="url(#clip4)"><path d="M20.336-177.568 82.832-177.568C94.0747-177.568 104.325-175.212 113.584-170.5 122.843-165.788 130.117-159.175 135.408-150.66 140.699-142.145 143.344-132.432 143.344-121.52 143.344-110.608 140.699-100.853 135.408-92.256 130.117-83.6587 122.843-77.004 113.584-72.292 104.325-67.58 94.0747-65.224 82.832-65.224L53.816-65.224 53.816 0 20.336 0ZM83.824-96.968C92.0907-96.968 98.58-99.3653 103.292-104.16 108.004-108.955 110.36-114.741 110.36-121.52 110.36-128.299 108.004-134.044 103.292-138.756 98.58-143.468 92.0907-145.824 83.824-145.824L53.816-145.824 53.816-96.968ZM229.451-177.568 342.043-177.568 342.043-145.824 262.931-145.824 262.931-104.656 334.107-104.656 334.107-72.912 262.931-72.912 262.931-31.744 342.043-31.744 342.043 0 229.451 0ZM469.942-145.824 420.342-145.824 420.342-177.568 553.022-177.568 553.022-145.824 503.422-145.824 503.422 0 469.942 0ZM721.191 3.968C703.831 3.968 688.083-0.124 673.947-8.308 659.811-16.492 648.693-27.6933 640.591-41.912 632.49-56.1307 628.439-71.7547 628.439-88.784 628.439-105.813 632.49-121.437 640.591-135.656 648.693-149.875 659.811-161.076 673.947-169.26 688.083-177.444 703.831-181.536 721.191-181.536 738.551-181.536 754.299-177.444 768.435-169.26 782.571-161.076 793.69-149.875 801.791-135.656 809.892-121.437 813.943-105.813 813.943-88.784 813.943-71.7547 809.892-56.1307 801.791-41.912 793.69-27.6933 782.571-16.492 768.435-8.308 754.299-0.124 738.551 3.968 721.191 3.968ZM721.191-27.776C732.103-27.776 742.106-30.3387 751.199-35.464 760.292-40.5893 767.443-47.7813 772.651-57.04 777.859-66.2987 780.463-76.88 780.463-88.784 780.463-100.688 777.859-111.269 772.651-120.528 767.443-129.787 760.292-136.979 751.199-142.104 742.106-147.229 732.103-149.792 721.191-149.792 710.279-149.792 700.318-147.229 691.307-142.104 682.297-136.979 675.187-129.787 669.979-120.528 664.771-111.269 662.167-100.688 662.167-88.784 662.167-76.88 664.771-66.2987 669.979-57.04 675.187-47.7813 682.297-40.5893 691.307-35.464 700.318-30.3387 710.279-27.776 721.191-27.776Z" fill="#FF4820" fill-rule="nonzero" fill-opacity="1" transform="matrix(1 0 0 1 160.949 315)"/></g></g><text fill="#FF4820" fill-opacity="1" font-family="Google Sans,Google Sans_MSFontService,sans-serif" font-style="normal" font-variant="normal" font-weight="700" font-stretch="normal" font-size="248" text-anchor="start" direction="ltr" writing-mode="lr-tb" unicode-bidi="normal" text-decoration="none" transform="matrix(1 0 0 1 1226.12 911)">P E T O</text><g clip-path="url(#clip5)" filter="url(#fx1)" transform="translate(1079 801)"><g clip-path="url(#clip6)"><path d="M104.408 3.968C87.2133 3.968 71.5067-0.124 57.288-8.308 43.0693-16.492 31.868-27.652 23.684-41.788 15.5-55.924 11.408-71.5893 11.408-88.784 11.408-105.979 15.5-121.644 23.684-135.78 31.868-149.916 43.0693-161.076 57.288-169.26 71.5067-177.444 87.2133-181.536 104.408-181.536 131.192-181.536 153.347-171.864 170.872-152.52L147.312-129.704C135.904-143.096 121.685-149.792 104.656-149.792 93.5787-149.792 83.4933-147.271 74.4-142.228 65.3067-137.185 58.156-130.035 52.948-120.776 47.74-111.517 45.136-100.853 45.136-88.784 45.136-76.7147 47.74-66.0507 52.948-56.792 58.156-47.5333 65.3067-40.3827 74.4-35.34 83.4933-30.2973 93.5787-27.776 104.656-27.776 123.339-27.776 138.963-35.5467 151.528-51.088L175.336-28.52C166.573-17.9387 156.199-9.87866 144.212-4.34 132.225 1.19867 118.957 3.968 104.408 3.968ZM347.65 3.968C330.29 3.968 314.542-0.124 300.406-8.308 286.27-16.492 275.151-27.6933 267.05-41.912 258.948-56.1307 254.898-71.7547 254.898-88.784 254.898-105.813 258.948-121.437 267.05-135.656 275.151-149.875 286.27-161.076 300.406-169.26 314.542-177.444 330.29-181.536 347.65-181.536 365.01-181.536 380.758-177.444 394.894-169.26 409.03-161.076 420.148-149.875 428.25-135.656 436.351-121.437 440.402-105.813 440.402-88.784 440.402-71.7547 436.351-56.1307 428.25-41.912 420.148-27.6933 409.03-16.492 394.894-8.308 380.758-0.124 365.01 3.968 347.65 3.968ZM347.65-27.776C358.562-27.776 368.564-30.3387 377.658-35.464 386.751-40.5893 393.902-47.7813 399.11-57.04 404.318-66.2987 406.922-76.88 406.922-88.784 406.922-100.688 404.318-111.269 399.11-120.528 393.902-129.787 386.751-136.979 377.658-142.104 368.564-147.229 358.562-149.792 347.65-149.792 336.738-149.792 326.776-147.229 317.766-142.104 308.755-136.979 301.646-129.787 296.438-120.528 291.23-111.269 288.626-100.688 288.626-88.784 288.626-76.88 291.23-66.2987 296.438-57.04 301.646-47.7813 308.755-40.5893 317.766-35.464 326.776-30.3387 336.738-27.776 347.65-27.776ZM529.659-177.568 563.139-177.568 563.139 0 529.659 0ZM661.43-177.568 700.366-177.568 771.79-58.528 773.774-58.528 771.79-92.752 771.79-177.568 805.022-177.568 805.022 0 769.806 0 694.414-125.736 692.43-125.736 694.414-91.512 694.414 0 661.43 0Z" fill="#FF4820" fill-rule="nonzero" fill-opacity="1" transform="matrix(1 0 0 1 160.497 315)"/></g></g><text fill="#FF4820" fill-opacity="1" font-family="Google Sans,Google Sans_MSFontService,sans-serif" font-style="normal" font-variant="normal" font-weight="700" font-stretch="normal" font-size="248" text-anchor="start" direction="ltr" writing-mode="lr-tb" unicode-bidi="normal" text-decoration="none" transform="matrix(1 0 0 1 1235.67 1112)">C O I N</text></g></svg>